<svg xmlns="http://www.w3.org/2000/svg" height="500" width="416" viewBox="0 0 416 500"><title>Shape</title><path d="M.03 0h220.9c59.42 0 107.48 13.7 134.29 37.1 26.36 22.9 39.82 53.3 39.82 89 0 30-2.99 48.3-19.58 69.7-11.06 14.3-26.06 27.8-47.32 36.1 32.34 8.7 51.5 27.4 66.77 48.7 15.22 21.3 21.09 43.7 21.09 75.9 0 26.3-6.06 48.6-16.87 69.6-10.86 20.9-44.03 73.4-158.82 73.4L0 500C.02 500 .02 0 .03 0zm131.03 193.2h59.34c32.3 0 48.41-3.7 56.91-12.1 8.54-8.4 16.86-19.1 16.86-43.5 0-23.1-10.29-32.2-20.09-39.5-9.53-7-28.86-10.8-52.73-10.8H131.1l-.04 105.9zm0 218.4h70.41c32.25 0 51.46-6.5 62.13-15.2 11.56-9.3 21.6-20.6 21.6-52.7 0-28.5-11.8-39.7-22.85-48.5-10.41-8.3-29.37-13.6-61.2-13.6h-70.09v130z" fill="#fff" opacity=".05" fill-rule="evenodd"/></svg>