<svg width="40" height="40" viewBox="0 0 40 40" xmlns="http://www.w3.org/2000/svg"><title>Shape</title><path d="M38.783 32.905l-19.91-19.908a4.51 4.51 0 0 1-1.305-3.525 8.796 8.796 0 0 0-2.548-6.91A8.746 8.746 0 0 0 8.815 0a8.9 8.9 0 0 0-2.508.36l5.283 5.283c.573 2.649-3.265 6.53-5.945 5.945L.363 6.305A8.895 8.895 0 0 0 0 8.82a8.74 8.74 0 0 0 2.563 6.202 8.774 8.774 0 0 0 6.91 2.55 4.496 4.496 0 0 1 3.522 1.305l19.91 19.906a4.157 4.157 0 0 0 5.878-5.878zm-2.95 4.595a1.666 1.666 0 1 1 0-3.332 1.666 1.666 0 0 1 0 3.332zM22.608 12.018l8.879-8.863a4.965 4.965 0 0 1 3.521-1.462 4.96 4.96 0 0 1 3.522 1.462A4.985 4.985 0 0 1 40 6.697a4.958 4.958 0 0 1-1.455 3.516l-8.877 8.864-1.731-1.732 8.445-8.432a.717.717 0 0 0-.002-1.015.717.717 0 0 0-1.017-.001l-8.446 8.43-1.484-1.484 8.445-8.431a.72.72 0 0 0-1.018-1.019l-8.445 8.43-1.807-1.805zm-5.883 15.3L8.013 35.96a5.46 5.46 0 0 0-.956 1.29l-.502.967L3.055 40l-1.388-1.39 1.708-3.577.967-.503c.476-.25.935-.548 1.316-.93l8.712-8.642 2.355 2.36z" fill="#243238" fill-rule="evenodd"/></svg>