<?xml version="1.0" encoding="UTF-8"?>
<svg width="21px" height="40px" viewBox="0 0 21 40" version="1.1" xmlns="http://www.w3.org/2000/svg" xmlns:xlink="http://www.w3.org/1999/xlink">
    <!-- Generator: Sketch 40.3 (33839) - http://www.bohemiancoding.com/sketch -->
    <title>feather</title>
    <desc>Created with Sketch.</desc>
    <defs>
        <radialGradient cx="32.9650704%" cy="22.43%" fx="32.9650704%" fy="22.43%" r="0.139277297%" id="radialGradient-1">
            <stop stop-color="#34364E" stop-opacity="0.98" offset="0%"></stop>
            <stop stop-color="#0C0824" offset="100%"></stop>
        </radialGradient>
        <linearGradient x1="16.5377071%" y1="63.6647547%" x2="159.470346%" y2="19.9640064%" id="linearGradient-2">
            <stop stop-color="#F69923" offset="0%"></stop>
            <stop stop-color="#F79A23" offset="31.23%"></stop>
            <stop stop-color="#E97826" offset="83.83%"></stop>
        </linearGradient>
        <linearGradient x1="-217.759367%" y1="394.595728%" x2="74.7186183%" y2="13.7697558%" id="linearGradient-3">
            <stop stop-color="#9E2064" offset="32.33%"></stop>
            <stop stop-color="#C92037" offset="63.02%"></stop>
            <stop stop-color="#CD2335" offset="75.14%"></stop>
            <stop stop-color="#E97826" offset="100%"></stop>
        </linearGradient>
        <linearGradient x1="-20.6556056%" y1="192.491107%" x2="125.23272%" y2="-136.440038%" id="linearGradient-4">
            <stop stop-color="#282662" offset="0%"></stop>
            <stop stop-color="#662E8D" offset="9.54839%"></stop>
            <stop stop-color="#9F2064" offset="78.82%"></stop>
            <stop stop-color="#CD2032" offset="94.87%"></stop>
        </linearGradient>
        <linearGradient x1="-80.0336393%" y1="170.500916%" x2="146.227723%" y2="-44.3641683%" id="linearGradient-5">
            <stop stop-color="#9E2064" offset="32.33%"></stop>
            <stop stop-color="#C92037" offset="63.02%"></stop>
            <stop stop-color="#CD2335" offset="75.14%"></stop>
            <stop stop-color="#E97826" offset="100%"></stop>
        </linearGradient>
        <linearGradient x1="-18.3986495%" y1="77.3318733%" x2="164.8455%" y2="-41.423122%" id="linearGradient-6">
            <stop stop-color="#282662" offset="0%"></stop>
            <stop stop-color="#662E8D" offset="9.54839%"></stop>
            <stop stop-color="#9F2064" offset="78.82%"></stop>
            <stop stop-color="#CD2032" offset="94.87%"></stop>
        </linearGradient>
        <linearGradient x1="-34.7851483%" y1="187.748055%" x2="110.662055%" y2="-51.1460685%" id="linearGradient-7">
            <stop stop-color="#9E2064" offset="32.33%"></stop>
            <stop stop-color="#C92037" offset="63.02%"></stop>
            <stop stop-color="#CD2335" offset="75.14%"></stop>
            <stop stop-color="#E97826" offset="100%"></stop>
        </linearGradient>
        <linearGradient x1="-129.864594%" y1="465.605782%" x2="66.4177731%" y2="17.1797127%" id="linearGradient-8">
            <stop stop-color="#9E2064" offset="32.33%"></stop>
            <stop stop-color="#C92037" offset="63.02%"></stop>
            <stop stop-color="#CD2335" offset="75.14%"></stop>
            <stop stop-color="#E97826" offset="100%"></stop>
        </linearGradient>
        <linearGradient x1="-4549.16207%" y1="63127.309%" x2="2857.87143%" y2="-38452.9868%" id="linearGradient-9">
            <stop stop-color="#9E2064" offset="32.33%"></stop>
            <stop stop-color="#C92037" offset="63.02%"></stop>
            <stop stop-color="#CD2335" offset="75.14%"></stop>
            <stop stop-color="#E97826" offset="100%"></stop>
        </linearGradient>
        <linearGradient x1="-15880.8178%" y1="236118.014%" x2="7802.19722%" y2="-114795.735%" id="linearGradient-10">
            <stop stop-color="#9E2064" offset="32.33%"></stop>
            <stop stop-color="#C92037" offset="63.02%"></stop>
            <stop stop-color="#CD2335" offset="75.14%"></stop>
            <stop stop-color="#E97826" offset="100%"></stop>
        </linearGradient>
        <linearGradient x1="-19880.5881%" y1="42660.5669%" x2="19903.3013%" y2="-42659.2129%" id="linearGradient-11">
            <stop stop-color="#9E2064" offset="32.33%"></stop>
            <stop stop-color="#C92037" offset="63.02%"></stop>
            <stop stop-color="#CD2335" offset="75.14%"></stop>
            <stop stop-color="#E97826" offset="100%"></stop>
        </linearGradient>
    </defs>
    <g id="Page-1" stroke="none" stroke-width="1" fill="none" fill-rule="evenodd">
        <g id="Hosting-Requirements" transform="translate(-99.000000, -155.000000)">
            <g id="server" transform="translate(90.000000, 155.000000)">
                <g id="feather">
                    <polygon id="Shape" fill-opacity="0" fill="url(#radialGradient-1)" points="0 -3.55271368e-15 40 -3.55271368e-15 40 40 0 40"></polygon>
                    <g id="Feather" transform="translate(9.000000, 0.000000)">
                        <path d="M17.2898872,0.19962157 C16.6526536,0.569536424 15.5944421,1.61778619 14.3305474,3.13623463 L15.4916005,5.29328288 C16.3066444,4.14569536 17.134183,3.11352886 17.9694108,2.23178808 C18.0338069,2.16177862 18.0674467,2.12866604 18.0674467,2.12866604 C18.0347681,2.16272469 18.0020894,2.19772942 17.9694108,2.23178808 C17.6993314,2.52507096 16.8794818,3.46641438 15.642499,5.3358562 C16.8333473,5.27719962 18.6633514,5.03784295 20.1559967,4.78618732 C20.6000418,2.33774834 19.7206018,1.2166509 19.7206018,1.2166509 C19.7206018,1.2166509 18.6027998,-0.563859981 17.2898872,0.19962157 L17.2898872,0.19962157 Z" id="Shape" fill="url(#linearGradient-2)"></path>
                        <path d="M15.3209055,12.5146785 C15.3293809,12.5086179 15.3378563,12.5055876 15.3463317,12.499527 L15.1824735,12.5571027 C15.1721147,12.5722542 15.1636393,12.5874058 15.1532804,12.599527 C15.2097832,12.5722542 15.2653443,12.5419512 15.3209055,12.5146785 L15.3209055,12.5146785 Z" id="Shape"></path>
                        <path d="M14.1334155,16.3680227 C14.0401859,16.4087634 13.9450728,16.4402449 13.849018,16.4680227 C13.9450728,16.4402449 14.0401859,16.4069116 14.1334155,16.3680227 L14.1334155,16.3680227 Z" id="Shape"></path>
                        <path d="M6.08495612,25.0350047 C6.0974509,25.0028382 6.10994567,24.9706717 6.12147931,24.9385052 C6.37714166,24.2743614 6.6299206,23.6291391 6.88077727,23 C7.16239031,22.2942289 7.4401588,21.6111637 7.71504388,20.948912 C8.00434601,20.2507096 8.28980359,19.5761589 8.57141663,18.9243141 C8.86648558,18.2403027 9.15770999,17.5818354 9.44316757,16.9479659 C9.67576264,16.4323557 9.90451316,15.9328288 10.1303803,15.4493851 C10.2053489,15.2885525 10.2803176,15.128666 10.3552863,14.9706717 C10.5033013,14.6575213 10.6503552,14.3500473 10.7945257,14.0501419 C10.9281237,13.7729423 11.0607606,13.5023652 11.1924363,13.2365184 C11.2356874,13.1475875 11.2798997,13.0605487 11.3231509,12.9725639 C11.3298788,12.9583728 11.3375679,12.9441816 11.3442959,12.9299905 L11.2020476,12.9451277 L11.0886335,12.7256386 C11.078061,12.7473983 11.0665274,12.7682119 11.0549937,12.7899716 C10.8512328,13.1882687 10.6493941,13.59035 10.4494776,13.9962157 C10.3341412,14.230842 10.2188048,14.4664144 10.1044296,14.7029328 C9.78725449,15.358562 9.47488508,16.0198675 9.16828249,16.6859035 C8.85783535,17.358562 8.55411617,18.0350047 8.25616381,18.7123936 C7.96301713,19.3774834 7.67659841,20.0435194 7.39498537,20.7076632 C7.11433347,21.3708609 6.84040953,22.0321665 6.5722524,22.6887417 C6.29256164,23.3746452 6.02055997,24.0539262 5.75720852,24.7256386 C5.69761805,24.8770104 5.63802758,25.0283822 5.57939824,25.179754 C5.36794818,25.7218543 5.16226494,26.256386 4.96138738,26.7842952 L5.1401588,27.1315043 L5.29970748,27.1144749 C5.3054743,27.0983917 5.31124112,27.0823084 5.31700794,27.0671712 C5.5755537,26.371807 5.83121605,25.6944182 6.08495612,25.0350047 L6.08495612,25.0350047 Z" id="Shape"></path>
                        <path d="M13.7750104,16.4395175 L13.7750104,16.4395175 C13.7850104,16.4395175 13.7850104,16.4295175 13.7950104,16.4295175 C13.7950104,16.4295175 13.7850104,16.4295175 13.7750104,16.4395175 L13.7750104,16.4395175 Z" id="Shape"></path>
                        <path d="M13.3812522,18.3140965 C13.2362283,18.3474298 13.0864958,18.3795727 12.9329965,18.412906 C12.9320548,18.412906 12.931113,18.4140965 12.9301713,18.4140965 C13.0073919,18.3998108 13.0836707,18.3855251 13.1590078,18.3688584 C13.2343449,18.3521917 13.3077986,18.3343346 13.3812522,18.3140965 L13.3812522,18.3140965 Z" id="Shape" fill="#BE202E"></path>
                        <path d="M13.3812522,18.3140965 C13.2362283,18.3474298 13.0864958,18.3795727 12.9329965,18.412906 C12.9320548,18.412906 12.931113,18.4140965 12.9301713,18.4140965 C13.0073919,18.3998108 13.0836707,18.3855251 13.1590078,18.3688584 C13.2343449,18.3521917 13.3077986,18.3343346 13.3812522,18.3140965 L13.3812522,18.3140965 Z" id="Shape" fill="#BE202E" opacity="0.35"></path>
                        <path d="M13.7787967,16.4658919 C13.7787967,16.4658919 13.777855,16.4658919 13.777855,16.4674303 C13.7769133,16.4674303 13.7769133,16.4689688 13.7759716,16.4689688 C13.8004561,16.4643534 13.823999,16.4566611 13.8475418,16.4520457 C13.9445384,16.4289688 14.0396514,16.4012765 14.1319394,16.3689688 C14.0161086,16.399738 13.8983944,16.4335842 13.7787967,16.4658919 L13.7787967,16.4658919 L13.7787967,16.4658919 L13.7787967,16.4658919 Z" id="Shape" fill="#BE202E"></path>
                        <path d="M13.7787967,16.4658919 C13.7787967,16.4658919 13.777855,16.4658919 13.777855,16.4674303 C13.7769133,16.4674303 13.7769133,16.4689688 13.7759716,16.4689688 C13.8004561,16.4643534 13.823999,16.4566611 13.8475418,16.4520457 C13.9445384,16.4289688 14.0396514,16.4012765 14.1319394,16.3689688 C14.0161086,16.399738 13.8983944,16.4335842 13.7787967,16.4658919 L13.7787967,16.4658919 L13.7787967,16.4658919 L13.7787967,16.4658919 Z" id="Shape" fill="#BE202E" opacity="0.35"></path>
                        <path d="M12.0689929,10.8666036 C12.42173,10.217597 12.7792729,9.58278146 13.1406603,8.96499527 C13.5155036,8.32355724 13.8951525,7.70104068 14.2786461,7.1012299 C14.3007522,7.06622517 14.3238195,7.03027436 14.3459256,6.99432356 C14.7246135,6.40397351 15.1071458,5.83632923 15.4925616,5.29328288 L14.3315086,3.13623463 C14.2440451,3.24124882 14.1565817,3.34815516 14.067196,3.45695364 C13.7327204,3.86754967 13.384789,4.30936613 13.0282073,4.77767266 C12.6264522,5.30558184 12.2131634,5.86944182 11.7931467,6.46073794 C11.4058086,7.00756859 11.0127037,7.57994324 10.6195988,8.17218543 C10.2851233,8.67644276 9.94872545,9.19583728 9.61521103,9.72847682 C9.60271626,9.74834437 9.59022148,9.76821192 9.5777267,9.78807947 L11.0886335,12.7256386 C11.4115754,12.0964995 11.7383619,11.4758751 12.0689929,10.8666036 L12.0689929,10.8666036 Z" id="Shape" fill="url(#linearGradient-3)"></path>
                        <path d="M5.18725449,27.4181646 C4.98733807,27.9593188 4.78646051,28.5099338 4.58462181,29.0728477 C4.5817384,29.0813623 4.57885499,29.0889309 4.57597158,29.0974456 C4.54713748,29.1769158 4.51926452,29.256386 4.49043042,29.3358562 C4.35491015,29.7152318 4.23669035,30.0567644 3.96661095,30.833491 C4.41161722,31.0331126 4.76916005,31.5591296 5.10748015,32.1561022 C5.07191809,31.538316 4.81145006,30.9574267 4.31838696,30.5080416 C6.51266193,30.6054872 8.40321772,30.0596026 9.38069369,28.4806055 C9.46815712,28.3396405 9.54793147,28.192053 9.62001672,28.0340587 C9.17597158,28.5884579 8.62524028,28.8240303 7.58817384,28.7663198 C7.58625157,28.7672658 7.58336816,28.7682119 7.58144588,28.769158 C7.58336816,28.7682119 7.58625157,28.7672658 7.58817384,28.7663198 C9.11445884,28.0936613 9.88048475,27.448439 10.5571249,26.3784295 C10.7176348,26.1248817 10.8733389,25.8476821 11.0328876,25.5402081 C9.69786878,26.8893094 8.15139992,27.2734153 6.5222733,26.9820246 L5.30066862,27.1135289 C5.26222315,27.2147588 5.22473882,27.3159886 5.18725449,27.4181646 L5.18725449,27.4181646 Z" id="Shape" fill="url(#linearGradient-4)"></path>
                        <path d="M5.75720852,24.7246925 C6.0215211,24.0529801 6.29352277,23.3736991 6.5722524,22.6877956 C6.83944839,22.0312204 7.11433347,21.3708609 7.39498537,20.7067171 C7.67563728,20.0425733 7.96301713,19.3774834 8.25616381,18.7114475 C8.55411617,18.0340587 8.85879649,17.3576159 9.16828249,16.6849574 C9.47488508,16.0198675 9.78725449,15.3576159 10.1044296,14.7019868 C10.2188048,14.4654683 10.3341412,14.2298959 10.4494776,13.9952696 C10.6493941,13.589404 10.8512328,13.1873226 11.0549937,12.7890255 C11.0655662,12.7672658 11.0770999,12.7464522 11.0886335,12.7246925 L9.5777267,9.7871334 C9.55273715,9.8268685 9.52870873,9.8666036 9.50371918,9.90633869 C9.15194317,10.4720908 8.80112829,11.051088 8.45704137,11.6423841 C8.1091099,12.2393567 7.76790639,12.8476821 7.43439198,13.4645222 C7.15277894,13.9848628 6.87789386,14.5099338 6.61069787,15.0397351 C6.55687422,15.1475875 6.5040117,15.2535478 6.45114919,15.3604541 C6.12147931,16.0274361 5.82448809,16.6717124 5.55536983,17.2913907 C5.25068951,17.9933775 4.98253239,18.6641438 4.74801504,19.2999054 C4.59327204,19.71807 4.45294609,20.1220435 4.32415378,20.5099338 C4.21842875,20.8410596 4.1175094,21.1731315 4.02235687,21.5033113 C3.79648976,22.28193 3.60234016,23.0586566 3.44279148,23.8325449 L4.96138738,26.7833491 C5.16226494,26.2554399 5.36794818,25.7209082 5.57939824,25.1788079 C5.63802758,25.0283822 5.69761805,24.8760643 5.75720852,24.7246925 L5.75720852,24.7246925 Z" id="Shape" fill="url(#linearGradient-5)"></path>
                        <path d="M3.42260761,23.9375591 C3.23230255,24.8817408 3.09678228,25.8221381 3.02854158,26.756859 C3.02661931,26.7899716 3.02277476,26.8221381 3.02085249,26.8552507 C2.54701212,26.1078524 1.27831174,25.3784295 1.28119515,25.385052 C2.18946929,26.6811731 2.87860426,27.9678335 2.98144588,29.230842 C2.49511074,29.3292337 1.82904304,29.1873226 1.05917259,28.9082308 C1.86172169,29.6338694 2.46435437,29.8344371 2.69887171,29.8883633 C1.9616799,29.9337748 1.19373172,30.4323557 0.420016715,31.0066225 C1.55127455,30.5525071 2.4653155,30.3727531 3.11984956,30.5184484 C2.08182198,33.4115421 1.04091099,36.6054872 0,39.9962157 C0.319097367,39.9035005 0.509402424,39.692526 0.616088592,39.4068117 C0.801587965,38.7928098 2.03280401,34.7644276 3.96180527,29.4692526 C4.01659005,29.3188269 4.07233598,29.1674551 4.12808191,29.0151372 C4.14346009,28.9725639 4.15979941,28.9299905 4.1751776,28.8883633 C4.37893857,28.333018 4.59038863,27.7663198 4.80856665,27.1882687 C4.85854576,27.0567644 4.90852486,26.9252602 4.95850397,26.7928098 C4.95946511,26.7899716 4.96042624,26.7871334 4.96138738,26.7852412 L3.44471375,23.8353832 C3.43798579,23.8684957 3.42933556,23.9025544 3.42260761,23.9375591 L3.42260761,23.9375591 Z" id="Shape" fill="url(#linearGradient-6)"></path>
                        <path d="M11.3231509,12.9735099 C11.2798997,13.0605487 11.2366486,13.1485336 11.1924363,13.2374645 C11.0617217,13.5033113 10.9290848,13.7738884 10.7945257,14.051088 C10.6493941,14.3509934 10.5033013,14.6575213 10.3552863,14.9716178 C10.2803176,15.1296121 10.2063101,15.2885525 10.1303803,15.4503311 C9.90451316,15.9337748 9.67576264,16.4333018 9.44316757,16.948912 C9.15770999,17.5827815 8.86648558,18.2412488 8.57141663,18.9252602 C8.28980359,19.577105 8.00434601,20.2516556 7.71504388,20.9498581 C7.4401588,21.6121097 7.16239031,22.2961211 6.88077727,23.0009461 C6.6299206,23.6300851 6.37714166,24.2753075 6.12147931,24.9394513 C6.10898454,24.9716178 6.09648976,25.0037843 6.08495612,25.0359508 C5.83121605,25.6953642 5.5755537,26.3727531 5.31796908,27.0671712 C5.31220226,27.0832545 5.30643544,27.0993377 5.30066862,27.1144749 L6.5222733,26.9829707 C6.49824488,26.9782403 6.47325533,26.9754021 6.44922691,26.9706717 C7.91015462,26.7918638 9.85165065,25.7171239 11.1068951,24.3907285 C11.6854994,23.7795648 12.21028,23.0586566 12.695654,22.2147588 C13.0570414,21.5865658 13.3963226,20.8902554 13.7192645,20.1192053 C14.0018387,19.4456008 14.2728792,18.7161779 14.5343084,17.9252602 C14.1988717,18.0993377 13.814417,18.2270577 13.3905558,18.3159886 C13.3165483,18.3311258 13.2406185,18.346263 13.1637275,18.359508 C13.0868366,18.3727531 13.0089845,18.385052 12.9301713,18.3954588 L12.9301713,18.3954588 L12.9301713,18.3954588 C12.9311325,18.3954588 12.9320936,18.3945128 12.9330547,18.3945128 C14.2949854,17.8789026 15.1542415,16.8826868 15.7789804,15.6631977 C15.4204764,15.9035005 14.8380276,16.218543 14.1402424,16.3699149 C14.0450898,16.3907285 13.948015,16.4068117 13.8499791,16.4210028 C13.8249896,16.4247871 13.8009611,16.4285714 13.7769327,16.4314096 L13.7769327,16.4314096 L13.7769327,16.4314096 C13.7778939,16.4314096 13.7778939,16.4304636 13.778855,16.4304636 C13.778855,16.4304636 13.7798161,16.4304636 13.7798161,16.4295175 L13.7798161,16.4295175 C14.2526954,16.2346263 14.6515671,16.0170293 14.9975763,15.7596973 C15.0715838,15.704825 15.143669,15.6480605 15.2128709,15.5884579 C15.3185959,15.4985809 15.4185541,15.4039735 15.5146678,15.3046358 C15.5761805,15.2412488 15.635771,15.1759697 15.6934392,15.1078524 C15.8289595,14.948912 15.9558295,14.7776727 16.0750104,14.5912961 C16.1115336,14.5345317 16.1470957,14.4768212 16.1826578,14.4172185 C16.2278312,14.3311258 16.2710823,14.2469253 16.3133723,14.1636708 C16.5036774,13.7871334 16.655537,13.4512772 16.7766402,13.1561022 C16.8371918,13.0085147 16.8900543,12.87228 16.9352277,12.7455061 C16.9534893,12.6953642 16.9707898,12.6461684 16.9871291,12.5988647 C17.035186,12.4569536 17.0745926,12.3311258 17.1053489,12.2204352 C17.1514835,12.0548723 17.1793565,11.923368 17.1947346,11.8278146 L17.1947346,11.8278146 L17.1947346,11.8278146 C17.1486001,11.8637654 17.0957376,11.8997162 17.0361471,11.9347209 C16.6247806,12.1769158 15.9193063,12.3964049 15.3503134,12.499527 L16.4719599,12.3784295 L15.3503134,12.499527 C15.3416632,12.5014191 15.333013,12.5023652 15.3243627,12.5042573 C15.2676557,12.5137181 15.2099875,12.5222327 15.1523193,12.5316935 C15.1628918,12.5269631 15.171542,12.5222327 15.1821145,12.5184484 L11.3442959,12.9328288 C11.3375679,12.9460738 11.3308399,12.9593188 11.3231509,12.9735099 L11.3231509,12.9735099 Z" id="Shape" fill="url(#linearGradient-7)"></path>
                        <path d="M15.6434601,5.33680227 C15.3022566,5.85241249 14.9293356,6.43803217 14.5285416,7.1012299 C14.5073966,7.13528855 14.4862516,7.17123936 14.4651066,7.20624409 C14.1190974,7.78051088 13.750982,8.41059603 13.3646051,9.1012299 C13.0301295,9.69725639 12.6821981,10.3368023 12.3208107,11.0245979 C12.0055579,11.6234626 11.6797326,12.2592242 11.345257,12.9318827 L15.1830756,12.5175024 C16.3008776,12.0113529 16.8006686,11.5534532 17.2860426,10.8912015 C17.4148349,10.7086093 17.5445884,10.5175024 17.6733807,10.3197729 C18.0674467,9.71428571 18.4538237,9.04730369 18.7998328,8.38410596 C19.1333473,7.743614 19.4274551,7.10879849 19.6533222,6.53642384 C19.7965316,6.17218543 19.9118679,5.83349101 19.9916423,5.53642384 C20.0618053,5.2743614 20.1165901,5.02554399 20.1588801,4.78807947 C18.6643126,5.03878903 16.8343084,5.27909177 15.6434601,5.33680227 L15.6434601,5.33680227 Z" id="Shape" fill="url(#linearGradient-8)"></path>
                        <path d="M13.1590078,18.3576159 C13.0836707,18.394458 13.0073919,18.4286685 12.9301713,18.4576159 L12.9301713,18.4576159 C13.0073919,18.4286685 13.0836707,18.394458 13.1590078,18.3576159 L13.1590078,18.3576159 Z" id="Shape" fill="#BE202E"></path>
                        <path d="M13.1590078,18.3576159 C13.0836707,18.394458 13.0073919,18.4286685 12.9301713,18.4576159 L12.9301713,18.4576159 C13.0073919,18.4286685 13.0836707,18.394458 13.1590078,18.3576159 L13.1590078,18.3576159 Z" id="Shape" fill="#BE202E" opacity="0.35"></path>
                        <path d="M13.1590078,18.3576159 C13.0836707,18.394458 13.0073919,18.4286685 12.9301713,18.4576159 L12.9301713,18.4576159 C13.0073919,18.4286685 13.0836707,18.394458 13.1590078,18.3576159 L13.1590078,18.3576159 Z" id="Shape" fill="url(#linearGradient-9)"></path>
                        <path d="M13.7750104,16.5200568 C13.809221,16.492784 13.8421157,16.4473295 13.8750104,16.4200568 C13.8421157,16.4473295 13.809221,16.4836931 13.7750104,16.5200568 L13.7750104,16.5200568 L13.7750104,16.5200568 Z" id="Shape" fill="#BE202E"></path>
                        <path d="M13.7750104,16.5200568 C13.809221,16.492784 13.8421157,16.4473295 13.8750104,16.4200568 C13.8421157,16.4473295 13.809221,16.4836931 13.7750104,16.5200568 L13.7750104,16.5200568 L13.7750104,16.5200568 Z" id="Shape" fill="#BE202E" opacity="0.35"></path>
                        <path d="M13.7750104,16.5200568 C13.809221,16.492784 13.8421157,16.4473295 13.8750104,16.4200568 C13.8421157,16.4473295 13.809221,16.4836931 13.7750104,16.5200568 L13.7750104,16.5200568 L13.7750104,16.5200568 Z" id="Shape" fill="url(#linearGradient-10)"></path>
                        <path d="M13.7778939,16.4385714 C13.7778939,16.4385714 13.7878939,16.4385714 13.7878939,16.4285714 L13.7878939,16.4285714 L13.7878939,16.4285714 L13.7878939,16.4285714 C13.7878939,16.4285714 13.7778939,16.4285714 13.7778939,16.4385714 L13.7778939,16.4385714 Z" id="Shape" fill="#BE202E"></path>
                        <path d="M13.7778939,16.4385714 C13.7778939,16.4385714 13.7878939,16.4385714 13.7878939,16.4285714 L13.7878939,16.4285714 L13.7878939,16.4285714 L13.7878939,16.4285714 C13.7878939,16.4285714 13.7778939,16.4285714 13.7778939,16.4385714 L13.7778939,16.4385714 Z" id="Shape" fill="#BE202E" opacity="0.35"></path>
                        <path d="M13.7778939,16.4385714 C13.7778939,16.4385714 13.7878939,16.4385714 13.7878939,16.4285714 L13.7878939,16.4285714 L13.7878939,16.4285714 L13.7878939,16.4285714 C13.7878939,16.4285714 13.7778939,16.4285714 13.7778939,16.4385714 L13.7778939,16.4385714 Z" id="Shape" fill="url(#linearGradient-11)"></path>
                    </g>
                </g>
            </g>
        </g>
    </g>
</svg>