<?xml version="1.0" encoding="UTF-8"?>
<svg width="40px" height="40px" viewBox="0 0 40 40" version="1.1" xmlns="http://www.w3.org/2000/svg" xmlns:xlink="http://www.w3.org/1999/xlink">
    <!-- Generator: Sketch 40.3 (33839) - http://www.bohemiancoding.com/sketch -->
    <title>ic-code</title>
    <desc>Created with Sketch.</desc>
    <defs></defs>
    <g id="Page-1" stroke="none" stroke-width="1" fill="none" fill-rule="evenodd">
        <g id="Hosting-Requirements" transform="translate(-432.000000, -155.000000)">
            <g id="php" transform="translate(432.000000, 155.000000)">
                <g id="ic-code">
                    <rect id="container" fill="#617CBE" x="0" y="0" width="40" height="40" rx="3"></rect>
                    <g id="PHP-logo" transform="translate(6.000000, 13.000000)" fill="#FFFFFF">
                        <path d="M5.55891975,11.6864376 C6.42575552,11.6864376 7.00342524,11.5289102 7.29222999,11.2137236 C7.58081394,10.8986028 7.64958112,10.3576738 7.49860512,9.59114747 C7.34080458,8.79284285 7.03712637,8.22304131 6.58686126,7.88167037 C6.13659616,7.54029943 5.45142001,7.36975232 4.53156032,7.36975232 L3.14381886,7.36975232 L3.99570758,11.6864376 L5.55891975,11.6864376 L5.55891975,11.6864376 Z M6.26294954e-17,3 L2.28151271,3 L2.82268457,5.7421555 L4.77695571,5.7421555 C5.63926186,5.7421555 6.34857811,5.83117813 6.90548654,6.00979005 C7.46238827,6.18797369 7.9684941,6.48716908 8.42400472,6.9070929 C8.80636576,7.25306289 9.1156441,7.63484356 9.35256235,8.05228336 C9.5891929,8.46937395 9.75734397,8.92991834 9.85672117,9.43355414 C10.0980954,10.6562367 9.91593401,11.6085239 9.31073868,12.2906991 C8.70554336,12.9729468 7.7427828,13.3140345 6.42295211,13.3140345 L2.03561552,13.3140345 L-8.8817842e-16,3 L6.26294954e-17,3 Z" id="path3124" transform="translate(4.979951, 8.157017) scale(1, -1) translate(-4.979951, -8.157017) "></path>
                        <path d="M12.0356102,10.3140345 L14.2991663,10.3140345 L13.7579945,7.57187897 L15.7745695,7.57187897 C17.0433099,7.57187897 17.9185492,7.35377977 18.4002139,6.91815461 C18.8818852,6.48223953 19.0261772,5.77592915 18.8335983,4.79957926 L17.8865007,-1.77635684e-15 L15.5870154,-1.77635684e-15 L16.4874787,4.56350554 C16.589947,5.08264502 16.5523653,5.43675231 16.3743722,5.62555067 C16.1964526,5.81435561 15.8177581,5.90889975 15.2386432,5.90889975 L13.4296008,5.90889975 L12.2635495,-1.77635684e-15 L10,-1.77635684e-15 L12.0356102,10.3140345" id="path3126" transform="translate(14.458078, 5.157017) scale(1, -1) translate(-14.458078, -5.157017) "></path>
                        <path d="M23.5589211,11.6864376 C24.4256833,11.6864376 25.003353,11.5289102 25.2922246,11.2137236 C25.5808153,10.8986028 25.6495825,10.3576738 25.4985329,9.59114747 C25.3408059,8.79284285 25.0371277,8.22304131 24.586789,7.88167037 C24.1365975,7.54029943 23.4514214,7.36975232 22.5316286,7.36975232 L21.1438202,7.36975232 L21.9957089,11.6864376 L23.5589211,11.6864376 L23.5589211,11.6864376 Z M18,3 L20.281514,3 L20.8226859,5.7421555 L22.7768834,5.7421555 C23.6391896,5.7421555 24.3485058,5.83117813 24.9054143,6.00979005 C25.462316,6.18797369 25.9684218,6.48716908 26.4240061,6.9070929 C26.8062935,7.25306289 27.1156454,7.63484356 27.3525637,8.05228336 C27.5891942,8.46937395 27.7573453,8.92991834 27.8566489,9.43355414 C28.0980968,10.6562367 27.9159353,11.6085239 27.31074,12.2906991 C26.7055447,12.9729468 25.7427841,13.3140345 24.4228798,13.3140345 L20.0355433,13.3140345 L18,3 L18,3 Z" id="path3128" transform="translate(22.979939, 8.157017) scale(1, -1) translate(-22.979939, -8.157017) "></path>
                    </g>
                </g>
            </g>
        </g>
    </g>
</svg>